<?xml version="1.0" standalone="no"?>
<!DOCTYPE svg PUBLIC "-//W3C//DTD SVG 20010904//EN"
 "http://www.w3.org/TR/2001/REC-SVG-20010904/DTD/svg10.dtd">
<svg version="1.0" xmlns="http://www.w3.org/2000/svg"
 width="794.000000pt" height="794.000000pt" viewBox="0 0 794.000000 794.000000"
 preserveAspectRatio="xMidYMid meet">
<metadata>
Created by potrace 1.14, written by Peter Selinger 2001-2017
</metadata>
<g transform="translate(0.000000,794.000000) scale(0.100000,-0.100000)"
fill="#000000" stroke="none">
<path d="M2483 6288 l-80 -193 -109 -3 -109 -3 -94 -282 c-52 -155 -96 -288
-99 -294 -3 -10 396 -13 1978 -13 1582 0 1981 3 1978 13 -3 6 -47 139 -99 294
l-94 282 -109 3 -109 3 -80 193 -79 192 -1408 0 -1408 0 -79 -192z"/>
<path d="M2060 5153 c0 -71 9 -220 20 -333 11 -113 20 -215 20 -227 l0 -23
1865 0 c1485 0 1865 3 1865 13 0 6 14 156 30 332 16 176 30 330 30 343 l0 22
-1915 0 -1915 0 0 -127z"/>
<path d="M3014 4134 c-57 -28 -70 -93 -29 -142 31 -37 81 -48 129 -28 40 16
56 42 56 86 0 42 -15 67 -50 85 -37 19 -67 19 -106 -1z"/>
<path d="M3363 3889 c-82 -16 -145 -68 -182 -149 l-21 -45 0 98 0 97 -174 0
-175 0 -23 -77 c-13 -43 -42 -138 -63 -210 -22 -73 -42 -133 -45 -133 -3 0
-23 57 -43 128 -21 70 -50 164 -64 210 l-25 82 -94 0 c-52 0 -94 -3 -94 -7 0
-5 46 -138 103 -298 l103 -290 113 0 113 0 88 249 c49 136 91 251 94 254 3 3
6 -110 6 -251 l0 -257 90 0 90 0 0 98 0 97 21 -45 c44 -99 126 -153 229 -153
71 0 115 17 163 61 l27 26 0 -42 0 -42 90 0 90 0 0 300 0 300 -90 0 -90 0 0
-42 0 -42 -27 26 c-56 52 -131 73 -210 57z m194 -192 c57 -63 56 -152 -2 -215
-31 -34 -38 -37 -90 -37 -52 0 -59 3 -90 37 -59 63 -57 164 3 220 36 34 49 38
102 34 35 -3 51 -11 77 -39z"/>
<path d="M4627 3889 c-57 -9 -126 -41 -155 -72 -12 -12 -34 -46 -50 -76 l-29
-52 -6 39 c-9 54 -57 115 -109 141 -83 40 -205 24 -263 -33 l-25 -25 0 39 0
40 -90 0 -90 0 0 -300 0 -300 90 0 90 0 0 186 c0 117 4 193 11 207 20 39 51
57 101 57 39 0 54 -6 80 -29 l33 -29 3 -196 3 -196 90 0 89 0 0 93 0 92 30
-52 c52 -90 144 -137 265 -136 114 1 193 45 245 136 16 29 30 55 30 60 0 4
-41 7 -91 7 -87 0 -93 -1 -126 -30 -49 -44 -103 -42 -149 4 -21 21 -34 44 -34
60 l0 26 205 0 205 0 0 58 c0 190 -154 313 -353 281z m122 -153 c25 -13 51
-52 51 -76 0 -6 -49 -10 -115 -10 -132 0 -140 7 -81 66 28 28 42 34 75 34 23
0 54 -6 70 -14z"/>
<path d="M4919 3868 c5 -13 59 -139 120 -281 76 -175 110 -265 105 -279 -3
-11 -33 -76 -65 -145 -32 -69 -59 -127 -59 -129 0 -3 43 -3 96 -2 l97 3 178
410 c99 226 182 418 185 428 5 16 -2 18 -91 15 l-97 -3 -66 -177 c-37 -98 -69
-178 -72 -178 -3 0 -35 80 -72 178 l-66 177 -101 3 -101 3 9 -23z"/>
<path d="M2290 2585 c0 -14 23 -266 50 -560 28 -294 50 -544 50 -555 0 -20 5
-20 1580 -20 1257 0 1580 3 1580 13 0 6 22 260 50 562 27 303 50 558 50 568 0
16 -87 17 -1680 17 l-1680 0 0 -25z"/>
</g>
</svg>
