<svg width="119" height="152" viewBox="0 0 119 152" fill="none" xmlns="http://www.w3.org/2000/svg">
<g clip-path="url(#clip0_713_225)">
<path d="M113.049 34.4714L107.767 18.2644H107.182H101.9L97.4979 7.59998H94.2701H57.8376H21.5022L17.1003 18.2644H11.2329L5.95117 34.4714H59.1087H113.049Z" fill="#713FDB"/>
<path d="M111.459 40.3153H60.596H7.94308V47.5435L9.03614 59.3859H6.6665L10.758 112.499H12.121H13.9481L16.898 144.4H17.257H58.2695H102.148L105.001 112.499H106.879H108.242L112.334 59.3859H109.754L111.459 40.3153Z" fill="#713FDB"/>
<path d="M80.9726 82.574C80.3703 82.0626 79.6014 81.793 78.8135 81.8168C78.048 81.7936 77.3004 82.0523 76.711 82.5442C76.1166 83.0783 75.7406 83.8154 75.6558 84.6125H81.8632C81.8772 84.2272 81.8044 83.8436 81.6501 83.4906C81.4959 83.1376 81.2643 82.8243 80.9726 82.574V82.574Z" fill="white"/>
<path d="M45.8761 90.2039C46.3461 90.2104 46.8121 90.1171 47.2437 89.93C47.6753 89.7429 48.0627 89.4663 48.3807 89.1182C49.0662 88.3944 49.409 87.4136 49.409 86.1759C49.409 84.9355 49.0662 83.9529 48.3807 83.2363C48.0568 82.897 47.6684 82.6267 47.2384 82.4416C46.8085 82.2564 46.3459 82.1602 45.8782 82.1587C45.4105 82.1572 44.9473 82.2504 44.5162 82.4327C44.0851 82.6151 43.6949 82.8828 43.3688 83.2201C42.6851 83.9294 42.3433 84.9056 42.3433 86.1488C42.3433 87.3892 42.686 88.3772 43.3688 89.1046C43.6854 89.4562 44.0726 89.736 44.5049 89.9256C44.9372 90.1151 45.4046 90.21 45.8761 90.2039V90.2039Z" fill="white"/>
<path d="M117.135 37.4571H119L113.13 14.8634H106.612L101.722 0H17.2784L12.388 14.8634H5.87011L0 37.4571H2.2131V44.3786L3.43031 57.5347H0.796179L5.34113 116.554H8.88749L12.164 152H106.895L110.069 116.557H113.67L118.215 57.5374H115.338L117.135 37.4571ZM102.143 144.4H16.8978L13.9722 112.779H104.977L102.143 144.4ZM32.6405 78.0601H37.593V83.581C37.7405 82.9502 37.9587 82.3383 38.2434 81.757C38.8107 80.5643 39.6989 79.5553 40.8074 78.8446C41.8925 78.1648 43.1483 77.8116 44.4266 77.8267C45.4683 77.8043 46.4991 78.0441 47.4251 78.5243C48.2372 78.9471 48.9221 79.5806 49.4088 80.3591V78.0601H54.3721V94.3214H49.4088V92.0197C48.9061 92.7956 48.2125 93.4276 47.3954 93.8546C46.466 94.3355 45.431 94.5727 44.3861 94.544C43.1153 94.5561 41.8683 94.1968 40.7966 93.5099C39.6864 92.7881 38.7984 91.7692 38.2327 90.5676C37.9479 89.9835 37.7297 89.3689 37.5822 88.7354V94.3214H32.6405V80.37L27.7177 94.3214H21.6074L15.8722 78.071H21.1756L24.6842 89.661L28.1927 78.071L32.6405 78.0601ZM32.1763 73.6929C32.1675 73.3295 32.2367 72.9686 32.3792 72.6346C32.5218 72.3006 32.7342 72.0015 33.0022 71.7576C33.5843 71.23 34.3486 70.9524 35.1316 70.984C35.905 70.9568 36.6584 71.2343 37.2314 71.7576C37.4914 72.0047 37.6986 72.3026 37.8402 72.633C37.9818 72.9634 38.0548 73.3195 38.0548 73.6793C38.0548 74.0391 37.9818 74.3951 37.8402 74.7256C37.6986 75.056 37.4914 75.3539 37.2314 75.601C36.658 76.1233 35.9047 76.3998 35.1316 76.3719C34.3489 76.4045 33.5846 76.1278 33.0022 75.601C32.7365 75.3612 32.5252 75.0666 32.3827 74.7374C32.2402 74.4081 32.1698 74.0519 32.1763 73.6929ZM62.0343 78.5134C62.9279 78.0847 63.9078 77.8692 64.8978 77.8837C66.7888 77.8837 68.2993 78.5008 69.4293 79.7349C70.3487 80.7759 70.9157 82.0837 71.0486 83.4697C71.2092 82.8744 71.4374 82.2997 71.7287 81.757C72.3878 80.5256 73.3907 79.5151 74.6139 78.85C75.9237 78.1528 77.3884 77.8026 78.87 77.8321C80.3207 77.8042 81.7549 78.145 83.0398 78.8229C84.2413 79.4678 85.2319 80.448 85.8926 81.6457C86.6001 82.9591 86.9545 84.4355 86.9208 85.9289C86.9191 86.4151 86.8903 86.9008 86.8345 87.3837H75.6151C75.6934 88.3934 76.0146 89.167 76.5868 89.699C77.1538 90.233 77.9073 90.5206 78.6838 90.4997C79.9199 90.4997 80.78 89.9759 81.264 88.9281H86.5322C86.2669 89.9876 85.7668 90.973 85.0694 91.8107C84.3515 92.6761 83.4457 93.3642 82.4218 93.822C81.3002 94.3196 80.085 94.5677 78.8592 94.5494C77.3861 94.5769 75.9304 94.2256 74.63 93.5289C73.4051 92.86 72.3992 91.8484 71.7341 90.6164C71.4854 90.1609 71.282 89.6817 71.1269 89.186V94.3214H66.2041V85.4864C66.2041 84.4007 65.9243 83.5557 65.3647 82.9513C64.7534 82.3724 63.9454 82.0501 63.1057 82.0501C62.2661 82.0501 61.4581 82.3724 60.8467 82.9513C60.2854 83.5539 60.0056 84.3989 60.0074 85.4864V94.3214H55.0549V78.0601H60.0074V80.2071C60.5274 79.4764 61.2253 78.8923 62.0343 78.5107V78.5134ZM84.7968 78.0629H90.3269L94.0621 88.0053L97.7677 78.0629H103.128L92.9907 101.509H87.663L91.3686 93.4176L84.7968 78.0629ZM112.312 59.66H6.68788L6.66629 59.3886H9.03053L7.95097 47.5434V40.3071H111.459L109.754 59.3777H112.334L112.312 59.66ZM59.1087 34.4714H5.94029L11.222 18.2644H17.1002L21.5022 7.6H97.4978L101.9 18.2644H107.767L113.049 34.4714H59.1087Z" fill="white"/>
</g>
<defs>
<clipPath id="clip0_713_225">
<rect width="119" height="152" fill="white"/>
</clipPath>
</defs>
</svg>
