<svg width="119" height="150" viewBox="0 0 119 150" fill="none" xmlns="http://www.w3.org/2000/svg">
<g clip-path="url(#clip0_713_231)">
<path d="M117.135 36.9643H119L113.13 14.6679H106.612L101.722 0H17.2784L12.388 14.6679H5.87011L0 36.9643H2.2131V43.7946L3.43031 56.7777H0.79618L5.34113 115.021H8.88749L12.164 150H106.895L110.069 115.023H113.67L118.215 56.7804H115.338L117.135 36.9643ZM7.95097 46.9179V39.7768H111.459L109.754 58.5964H9.03053L7.95097 46.9179ZM84.7968 77.033H90.3269L94.0622 86.8446L97.7677 77.033H103.128L92.9907 100.171H87.6631L91.3687 92.1857L84.7968 77.033ZM76.5868 88.5268C77.1538 89.0537 77.9073 89.3376 78.6838 89.317C79.9199 89.317 80.78 88.8 81.264 87.7661H86.5322C86.2669 88.8116 85.7668 89.7841 85.0694 90.6107C84.3515 91.4647 83.4457 92.1437 82.4218 92.5955C81.3002 93.0865 80.085 93.3314 78.8592 93.3134C77.3861 93.3405 75.9304 92.9938 74.6301 92.3062C73.4051 91.6462 72.3992 90.6479 71.7341 89.4321C71.4854 88.9826 71.282 88.5097 71.1269 88.0205V93.0804H66.2041V84.3616C66.2041 83.2902 65.9243 82.4562 65.3647 81.8598C64.7534 81.2886 63.9454 80.9705 63.1057 80.9705C62.2661 80.9705 61.4581 81.2886 60.8468 81.8598C60.2854 82.4545 60.0056 83.2884 60.0074 84.3616V93.0804H55.0549V77.033H60.0074V79.1518C60.5264 78.4277 61.2244 77.8485 62.0343 77.4696C62.9288 77.0502 63.9087 76.8412 64.8978 76.8589C66.7888 76.8589 68.2993 77.4679 69.4293 78.6857C70.3487 79.7131 70.9157 81.0037 71.0486 82.3714C71.2092 81.784 71.4374 81.2169 71.7287 80.6812C72.3878 79.4661 73.3907 78.4689 74.6139 77.8125C75.9237 77.1245 77.3884 76.7788 78.87 76.808C80.3207 76.7804 81.755 77.1167 83.0398 77.7857C84.2413 78.4221 85.2319 79.3895 85.8926 80.5714C86.6001 81.8675 86.9546 83.3245 86.9209 84.7982C86.9191 85.278 86.8903 85.7573 86.8345 86.2339H75.6151C75.6934 87.225 76.0146 87.9911 76.5868 88.5268ZM47.3954 92.6089C46.467 93.0872 45.4319 93.325 44.3862 93.3C43.1153 93.3119 41.8683 92.9574 40.7966 92.2795C39.6864 91.5672 38.7984 90.5617 38.2327 89.3759C37.9479 88.7995 37.7297 88.1929 37.5822 87.5679V93.0804H32.6405V79.3125L27.7177 93.0804H21.6074L15.8722 77.0437H21.1756L24.6842 88.4812L28.1927 77.0437H37.6038V82.492C37.7513 81.8695 37.9695 81.2656 38.2542 80.692C38.8215 79.5149 39.7097 78.5192 40.8182 77.8179C41.9033 77.147 43.1591 76.7985 44.4374 76.8134C45.4791 76.7912 46.5098 77.0279 47.4359 77.5018C48.248 77.919 48.9329 78.5442 49.4196 79.3125V77.0437H54.3721V93.0804H49.4088V90.8089C48.9047 91.5706 48.2112 92.1906 47.3954 92.6089V92.6089ZM32.1763 72.7232C32.1675 72.3647 32.2367 72.0084 32.3792 71.6788C32.5218 71.3493 32.7342 71.0541 33.0022 70.8134C33.5844 70.2928 34.3486 70.0188 35.1316 70.05C35.905 70.0231 36.6585 70.297 37.2314 70.8134C37.4914 71.0572 37.6986 71.3512 37.8402 71.6773C37.9818 72.0034 38.0548 72.3547 38.0548 72.7098C38.0548 73.0649 37.9818 73.4162 37.8402 73.7423C37.6986 74.0684 37.4914 74.3624 37.2314 74.6062C36.658 75.1216 35.9047 75.3946 35.1316 75.367C34.3489 75.3992 33.5846 75.1261 33.0022 74.6062C32.7365 74.3696 32.5252 74.0789 32.3827 73.754C32.2402 73.4291 32.1698 73.0775 32.1763 72.7232ZM102.143 142.5H16.8978L13.9479 111.027H105.001L102.143 142.5ZM59.1033 34.0179H5.93489L11.2166 18.0241H17.1002L21.5022 7.5H97.4979L101.9 18.0241H107.767L113.049 34.0179H59.1033Z" fill="white"/>
<path d="M80.9726 81.4875C80.3703 80.9829 79.6014 80.7167 78.8135 80.7402C78.048 80.7174 77.3004 80.9726 76.711 81.4581C76.1166 81.9852 75.7406 82.7125 75.6558 83.4991H81.8632C81.8772 83.1189 81.8044 82.7404 81.6501 82.3921C81.4959 82.0437 81.2643 81.7345 80.9726 81.4875V81.4875Z" fill="white"/>
<path d="M48.3807 82.1491C48.0571 81.8143 47.6688 81.5476 47.2391 81.3649C46.8094 81.1822 46.347 81.0873 45.8796 81.0858C45.4121 81.0843 44.9491 81.1763 44.5182 81.3562C44.0873 81.5361 43.6973 81.8003 43.3715 82.133C42.686 82.833 42.3433 83.7964 42.3433 85.0232C42.3433 86.2473 42.686 87.2223 43.3715 87.9402C43.6929 88.2789 44.0806 88.549 44.5107 88.734C44.9408 88.9191 45.4044 89.0152 45.8732 89.0164C46.342 89.0177 46.8062 88.9241 47.2373 88.7413C47.6684 88.5586 48.0575 88.2905 48.3807 87.9535C49.0662 87.2393 49.409 86.2714 49.409 85.05C49.409 83.8259 49.0662 82.8562 48.3807 82.1491Z" fill="white"/>
</g>
<defs>
<clipPath id="clip0_713_231">
<rect width="119" height="150" fill="white"/>
</clipPath>
</defs>
</svg>
